<svg width="20" height="20" viewBox="0 0 20 20" fill="none" xmlns="http://www.w3.org/2000/svg">
<path d="M2.78546 6.48097C2.97391 6.026 3.25014 5.6126 3.59837 5.26438C3.94659 4.91616 4.35998 4.63993 4.81496 4.45147C5.26993 4.26301 5.75757 4.16602 6.25003 4.16602C6.74249 4.16602 7.23013 4.26301 7.68511 4.45147C8.14008 4.63993 8.55348 4.91616 8.9017 5.26438L10 6.36272L11.0984 5.26438C11.8016 4.56112 12.7555 4.16603 13.75 4.16603C14.7446 4.16603 15.6984 4.56112 16.4017 5.26438C17.105 5.96765 17.5001 6.92148 17.5001 7.91605C17.5001 8.91062 17.105 9.86445 16.4017 10.5677L10 16.9694L3.59837 10.5677C3.25014 10.2195 2.97391 9.8061 2.78546 9.35112C2.597 8.89615 2.5 8.40851 2.5 7.91605C2.5 7.42359 2.597 6.93595 2.78546 6.48097Z" stroke="#2F302C" stroke-width="1.5" stroke-linecap="round" stroke-linejoin="round"/>
</svg>
