<svg width="162" height="27" viewBox="0 0 162 27" fill="none" xmlns="http://www.w3.org/2000/svg">
<path d="M9.18001 1.224C8.31601 1.272 7.68001 1.368 7.27201 1.512C6.88801 1.656 6.62401 1.932 6.48001 2.34C6.33601 2.748 6.26401 3.408 6.26401 4.32V22.176C6.26401 23.088 6.33601 23.748 6.48001 24.156C6.62401 24.564 6.88801 24.84 7.27201 24.984C7.68001 25.128 8.31601 25.224 9.18001 25.272V25.992C8.07601 25.92 6.55201 25.884 4.60801 25.884C2.54401 25.884 1.00801 25.92 6.70552e-06 25.992V25.272C0.864007 25.224 1.48801 25.128 1.87201 24.984C2.28001 24.84 2.55601 24.564 2.70001 24.156C2.84401 23.748 2.91601 23.088 2.91601 22.176V4.32C2.91601 3.408 2.84401 2.748 2.70001 2.34C2.55601 1.932 2.28001 1.656 1.87201 1.512C1.48801 1.368 0.864007 1.272 6.70552e-06 1.224V0.504004C1.00801 0.576003 2.54401 0.612003 4.60801 0.612003C6.52801 0.612003 8.05201 0.576003 9.18001 0.504004V1.224ZM34.8072 1.224C33.9672 1.272 33.3432 1.404 32.9352 1.62C32.5272 1.812 32.2512 2.148 32.1072 2.628C31.9632 3.084 31.8912 3.768 31.8912 4.68V26.172H31.0632L15.9432 2.808V21.816C15.9432 22.752 16.0152 23.448 16.1592 23.904C16.3272 24.36 16.6392 24.696 17.0952 24.912C17.5512 25.104 18.2592 25.224 19.2192 25.272V25.992C18.3552 25.92 17.1312 25.884 15.5472 25.884C14.1072 25.884 12.9912 25.92 12.1992 25.992V25.272C13.0392 25.224 13.6632 25.104 14.0712 24.912C14.4792 24.696 14.7552 24.36 14.8992 23.904C15.0432 23.424 15.1152 22.728 15.1152 21.816V4.32C15.1152 3.408 15.0432 2.748 14.8992 2.34C14.7552 1.932 14.4792 1.656 14.0712 1.512C13.6872 1.368 13.0632 1.272 12.1992 1.224V0.504004C12.9912 0.576003 14.1072 0.612003 15.5472 0.612003C16.6272 0.612003 17.5632 0.576003 18.3552 0.504004L31.0632 20.088V4.68C31.0632 3.744 30.9792 3.048 30.8112 2.592C30.6672 2.136 30.3672 1.812 29.9112 1.62C29.4552 1.404 28.7472 1.272 27.7872 1.224V0.504004C28.6512 0.576003 29.8752 0.612003 31.4592 0.612003C32.8992 0.612003 34.0152 0.576003 34.8072 0.504004V1.224ZM55.5812 0.504004C55.4132 2.208 55.3292 3.744 55.3292 5.112C55.3292 6.312 55.3652 7.296 55.4372 8.064H54.6092C54.4172 6.216 54.1772 4.848 53.8892 3.96C53.6012 3.048 53.0972 2.388 52.3772 1.98C51.6572 1.548 50.5532 1.332 49.0652 1.332H46.7972C45.9332 1.332 45.2972 1.404 44.8892 1.548C44.5052 1.668 44.2412 1.932 44.0972 2.34C43.9532 2.748 43.8812 3.408 43.8812 4.32V13.176H46.5092C47.3492 13.176 47.9972 12.984 48.4532 12.6C48.9092 12.192 49.2092 11.724 49.3532 11.196C49.5212 10.644 49.6532 9.96 49.7492 9.144L49.8572 8.424H50.6852C50.6132 9.432 50.5772 10.56 50.5772 11.808V13.536C50.5772 14.76 50.6492 16.464 50.7932 18.648H49.9652C49.9412 18.48 49.8692 17.904 49.7492 16.92C49.6292 15.912 49.2932 15.156 48.7412 14.652C48.2132 14.148 47.4692 13.896 46.5092 13.896H43.8812V22.176C43.8812 23.088 43.9772 23.748 44.1692 24.156C44.3612 24.564 44.6972 24.84 45.1772 24.984C45.6572 25.128 46.4372 25.224 47.5172 25.272V25.992C46.2692 25.92 44.5052 25.884 42.2252 25.884C40.1612 25.884 38.6252 25.92 37.6172 25.992V25.272C38.4812 25.224 39.1052 25.128 39.4892 24.984C39.8972 24.84 40.1732 24.564 40.3172 24.156C40.4612 23.748 40.5332 23.088 40.5332 22.176V4.32C40.5332 3.408 40.4612 2.748 40.3172 2.34C40.1732 1.932 39.8972 1.656 39.4892 1.512C39.1052 1.368 38.4812 1.272 37.6172 1.224V0.504004C39.9692 0.576003 43.4492 0.612003 48.0572 0.612003C51.5852 0.612003 54.0932 0.576003 55.5812 0.504004ZM69.6057 2.14577e-06C71.8857 2.14577e-06 73.8777 0.516003 75.5817 1.548C77.3097 2.58 78.6417 4.08 79.5777 6.048C80.5377 7.992 81.0177 10.32 81.0177 13.032C81.0177 15.672 80.5257 18.012 79.5417 20.052C78.5817 22.092 77.2257 23.676 75.4737 24.804C73.7457 25.932 71.7777 26.496 69.5697 26.496C67.2897 26.496 65.2857 25.98 63.5577 24.948C61.8537 23.916 60.5217 22.428 59.5617 20.484C58.6257 18.516 58.1577 16.176 58.1577 13.464C58.1577 10.824 58.6377 8.484 59.5977 6.444C60.5817 4.404 61.9377 2.82 63.6657 1.692C65.4177 0.564003 67.3977 2.14577e-06 69.6057 2.14577e-06ZM69.4617 0.648002C67.9257 0.648002 66.5697 1.188 65.3937 2.268C64.2417 3.324 63.3417 4.812 62.6937 6.732C62.0697 8.652 61.7577 10.848 61.7577 13.32C61.7577 15.816 62.1057 18.012 62.8017 19.908C63.5217 21.804 64.4817 23.268 65.6817 24.3C66.8817 25.332 68.2257 25.848 69.7137 25.848C71.2497 25.848 72.5937 25.32 73.7457 24.264C74.9217 23.184 75.8217 21.684 76.4457 19.764C77.0937 17.844 77.4177 15.648 77.4177 13.176C77.4177 10.68 77.0577 8.484 76.3377 6.588C75.6417 4.692 74.6937 3.228 73.4937 2.196C72.2937 1.164 70.9497 0.648002 69.4617 0.648002ZM105.362 12.528C108.002 12.888 109.886 13.656 111.014 14.832C112.142 15.984 112.706 17.376 112.706 19.008C112.706 20.376 112.358 21.588 111.662 22.644C110.966 23.7 109.97 24.528 108.674 25.128C107.378 25.704 105.842 25.992 104.066 25.992C103.418 25.992 102.866 25.98 102.41 25.956C100.874 25.908 99.3622 25.884 97.8742 25.884C95.9062 25.884 94.4182 25.92 93.4102 25.992V25.272C94.2742 25.224 94.8982 25.128 95.2822 24.984C95.6902 24.84 95.9662 24.564 96.1102 24.156C96.2542 23.748 96.3262 23.088 96.3262 22.176V4.32C96.3262 3.408 96.2542 2.748 96.1102 2.34C95.9662 1.932 95.6902 1.656 95.2822 1.512C94.8982 1.368 94.2742 1.272 93.4102 1.224V0.504004C94.4182 0.576003 95.8822 0.612003 97.8022 0.612003L101.69 0.576003C102.146 0.552004 102.662 0.540004 103.238 0.540004C105.686 0.540004 107.558 1.056 108.854 2.088C110.174 3.12 110.834 4.488 110.834 6.192C110.834 7.584 110.39 8.832 109.502 9.936C108.638 11.04 107.258 11.88 105.362 12.456V12.528ZM102.338 1.224C101.594 1.224 101.03 1.308 100.646 1.476C100.286 1.644 100.034 1.944 99.8902 2.376C99.7462 2.808 99.6742 3.456 99.6742 4.32V12.456H102.086C104.054 12.456 105.422 11.928 106.19 10.872C106.982 9.792 107.378 8.364 107.378 6.588C107.378 4.788 106.982 3.444 106.19 2.556C105.398 1.668 104.114 1.224 102.338 1.224ZM102.374 25.164C106.862 25.164 109.106 23.064 109.106 18.864C109.106 16.968 108.59 15.528 107.558 14.544C106.55 13.56 104.93 13.068 102.698 13.068H99.6742V22.176C99.6742 23.04 99.7462 23.676 99.8902 24.084C100.034 24.492 100.286 24.78 100.646 24.948C101.03 25.092 101.606 25.164 102.374 25.164ZM134.494 22.968C135.07 24.456 135.898 25.224 136.978 25.272V25.992C136.018 25.92 134.734 25.884 133.126 25.884C131.062 25.884 129.526 25.92 128.518 25.992V25.272C129.43 25.224 130.078 25.116 130.462 24.948C130.87 24.756 131.074 24.42 131.074 23.94C131.074 23.532 130.93 22.968 130.642 22.248L128.446 16.344H119.734L118.258 20.16C117.778 21.456 117.538 22.44 117.538 23.112C117.538 23.856 117.79 24.396 118.294 24.732C118.822 25.068 119.614 25.248 120.67 25.272V25.992C119.302 25.92 117.922 25.884 116.53 25.884C115.45 25.884 114.55 25.92 113.83 25.992V25.272C115.03 24.984 115.978 23.94 116.674 22.14L125.134 0.324002H125.71L134.494 22.968ZM128.158 15.624L124.126 4.86L120.022 15.624H128.158ZM149.762 2.14577e-06C152.042 2.14577e-06 154.034 0.516003 155.738 1.548C157.466 2.58 158.798 4.08 159.734 6.048C160.694 7.992 161.174 10.32 161.174 13.032C161.174 15.672 160.682 18.012 159.698 20.052C158.738 22.092 157.382 23.676 155.63 24.804C153.902 25.932 151.934 26.496 149.726 26.496C147.446 26.496 145.442 25.98 143.714 24.948C142.01 23.916 140.678 22.428 139.718 20.484C138.782 18.516 138.314 16.176 138.314 13.464C138.314 10.824 138.794 8.484 139.754 6.444C140.738 4.404 142.094 2.82 143.822 1.692C145.574 0.564003 147.554 2.14577e-06 149.762 2.14577e-06ZM149.618 0.648002C148.082 0.648002 146.726 1.188 145.55 2.268C144.398 3.324 143.498 4.812 142.85 6.732C142.226 8.652 141.914 10.848 141.914 13.32C141.914 15.816 142.262 18.012 142.958 19.908C143.678 21.804 144.638 23.268 145.838 24.3C147.038 25.332 148.382 25.848 149.87 25.848C151.406 25.848 152.75 25.32 153.902 24.264C155.078 23.184 155.978 21.684 156.602 19.764C157.25 17.844 157.574 15.648 157.574 13.176C157.574 10.68 157.214 8.484 156.494 6.588C155.798 4.692 154.85 3.228 153.65 2.196C152.45 1.164 151.106 0.648002 149.618 0.648002Z" fill="white"/>
</svg>
