<svg width="52" height="39" viewBox="0 0 52 39" fill="none" xmlns="http://www.w3.org/2000/svg">
<path d="M30.1358 34.6147C29.1294 35.5836 29.0905 37.1934 30.0489 38.2105C31.0074 39.2279 32.5999 39.2672 33.6061 38.2983L30.1358 34.6147ZM51.219 21.3418C52.2254 20.3729 52.2643 18.763 51.3058 17.746C50.3474 16.7286 48.7548 16.6893 47.7487 17.6582L51.219 21.3418ZM47.7487 21.3418C48.7548 22.3107 50.3474 22.2714 51.3058 21.254C52.2643 20.2369 52.2254 18.6271 51.219 17.6582L47.7487 21.3418ZM33.6061 0.701667C32.5999 -0.267126 31.0074 -0.227855 30.0489 0.789365C29.0905 1.80659 29.1294 3.41654 30.1358 4.3853L33.6061 0.701667ZM49.4838 22.0435C50.8734 22.0435 52 20.9047 52 19.5C52 18.0953 50.8734 16.9565 49.4838 16.9565V22.0435ZM2.51613 16.9565C1.12652 16.9565 0 18.0953 0 19.5C0 20.9047 1.12652 22.0435 2.51613 22.0435V16.9565ZM33.6061 38.2983L51.219 21.3418L47.7487 17.6582L30.1358 34.6147L33.6061 38.2983ZM51.219 17.6582L33.6061 0.701667L30.1358 4.3853L47.7487 21.3418L51.219 17.6582ZM49.4838 16.9565H2.51613V22.0435H49.4838V16.9565Z" fill="#0B04D3"/>
</svg>
